<svg xmlns="http://www.w3.org/2000/svg" width="1200" height="300" viewBox="0 0 1200 300" fill="none" role="img" aria-label="ccremote — Drive Claude Code sessions on your PC from a phone, and run supervised teams of autonomous agents across a Pi, a PC and a VPS.">
  <defs>
    <linearGradient id="b-dark-g" x1="0" y1="0" x2="1" y2="1"><stop offset="0" stop-color="#0a0b0e"/><stop offset="1" stop-color="#0e1014"/></linearGradient>
    <radialGradient id="b-dark-h" cx="0.8" cy="0.5" r="0.5"><stop offset="0" stop-color="#d8a35f" stop-opacity="0.14"/><stop offset="1" stop-color="#d8a35f" stop-opacity="0"/></radialGradient>
  </defs>
  <rect width="1200" height="300" rx="16" fill="url(#b-dark-g)"/>
  <rect width="1200" height="300" rx="16" fill="url(#b-dark-h)"/>
  <rect x="1" y="1" width="1198" height="298" rx="15" stroke="#20242c" stroke-width="1.5"/>
  <g transform="translate(72,66)">
    <rect x="0" y="-11" width="26" height="2" rx="1" fill="#d8a35f"/>
    <text x="40" y="-5" font-family="ui-monospace,'SF Mono',Consolas,monospace" font-size="13" letter-spacing="3" fill="#8b929c">REMOTE CONTROL · AGENT ORCHESTRATION</text>
  </g>
  <text x="70" y="140" font-family="Georgia,'Times New Roman',serif" font-size="62" font-weight="600" fill="#f4f1ea" letter-spacing="0.5">ccremote</text>
  <line x1="72" y1="160" x2="300" y2="160" stroke="#d8a35f" stroke-width="2" stroke-linecap="round"/>
  <text x="72" y="196" font-family="ui-monospace,'SF Mono',Consolas,monospace" font-size="17" fill="#c3cad3">Drive Claude Code sessions on your PC from a phone, and run supervised</text><text x="72" y="222" font-family="ui-monospace,'SF Mono',Consolas,monospace" font-size="17" fill="#c3cad3">teams of autonomous agents across a Pi, a PC and a VPS.</text>
  <rect x="72" y="247" width="98" height="22" rx="11" fill="#161b22" stroke="#2a313c"/>
        <text x="121" y="262" text-anchor="middle" font-family="ui-monospace,'SF Mono',Consolas,monospace" font-size="11.5" fill="#8b929c">TypeScript</text><rect x="178" y="247" width="44.8" height="22" rx="11" fill="#161b22" stroke="#2a313c"/>
        <text x="200.4" y="262" text-anchor="middle" font-family="ui-monospace,'SF Mono',Consolas,monospace" font-size="11.5" fill="#8b929c">Bun</text><rect x="230.8" y="247" width="67.6" height="22" rx="11" fill="#161b22" stroke="#2a313c"/>
        <text x="264.6" y="262" text-anchor="middle" font-family="ui-monospace,'SF Mono',Consolas,monospace" font-size="11.5" fill="#8b929c">Python</text><rect x="306.4" y="247" width="75.19999999999999" height="22" rx="11" fill="#161b22" stroke="#2a313c"/>
        <text x="344" y="262" text-anchor="middle" font-family="ui-monospace,'SF Mono',Consolas,monospace" font-size="11.5" fill="#8b929c">FastAPI</text><rect x="389.59999999999997" y="247" width="143.6" height="22" rx="11" fill="#161b22" stroke="#2a313c"/>
        <text x="461.4" y="262" text-anchor="middle" font-family="ui-monospace,'SF Mono',Consolas,monospace" font-size="11.5" fill="#8b929c">Claude Agent SDK</text><rect x="541.1999999999999" y="247" width="82.8" height="22" rx="11" fill="#161b22" stroke="#2a313c"/>
        <text x="582.5999999999999" y="262" text-anchor="middle" font-family="ui-monospace,'SF Mono',Consolas,monospace" font-size="11.5" fill="#8b929c">AGPL-3.0</text>
  <g opacity="0.9"><path d="M880 114 q20 -16 40 0 t40 0 t40 0 t40 0" fill="none" stroke="#4b525c" stroke-width="2" stroke-linecap="round"/><path d="M880 138 q20 -16 40 0 t40 0 t40 0 t40 0" fill="none" stroke="#d8a35f" stroke-width="2" stroke-linecap="round"/><path d="M880 162 q20 -16 40 0 t40 0 t40 0 t40 0" fill="none" stroke="#4b525c" stroke-width="2" stroke-linecap="round"/><path d="M880 186 q20 -16 40 0 t40 0 t40 0 t40 0" fill="none" stroke="#4b525c" stroke-width="2" stroke-linecap="round"/></g>
  <text x="1128" y="280" text-anchor="end" font-family="ui-monospace,'SF Mono',Consolas,monospace" font-size="12" fill="#4b525c">github.com/chrlstopher-c/ccremote</text>
</svg>